<?xml version="1.0" standalone="no"?>
<!DOCTYPE svg PUBLIC "-//W3C//DTD SVG 20010904//EN"
 "http://www.w3.org/TR/2001/REC-SVG-20010904/DTD/svg10.dtd">
<svg version="1.0" xmlns="http://www.w3.org/2000/svg"
 width="1184.000000pt" height="1184.000000pt" viewBox="0 0 1184.000000 1184.000000"
 preserveAspectRatio="xMidYMid meet">
<metadata>
Created by potrace 1.11, written by Peter Selinger 2001-2013
</metadata>
<g transform="translate(0.000000,1184.000000) scale(0.100000,-0.100000)"
fill="#000000" stroke="none">
<path d="M4827 9914 c-1 -2 -151 -6 -332 -9 -423 -7 -851 -19 -1130 -30 -77
-4 -187 -8 -245 -10 -152 -6 -328 -14 -460 -21 -167 -8 -254 -13 -355 -18 -83
-4 -143 -8 -360 -22 -44 -3 -109 -7 -145 -8 -127 -7 -255 -17 -285 -22 -16 -3
-46 -7 -65 -9 -158 -15 -444 -117 -578 -206 -24 -16 -47 -29 -51 -29 -5 0 -11
-7 -15 -15 -3 -8 -12 -15 -21 -15 -28 0 -239 -221 -303 -318 -62 -93 -152
-267 -152 -293 0 -8 -7 -26 -14 -41 -8 -15 -24 -65 -36 -110 -32 -120 -39
-149 -45 -199 -3 -24 -9 -66 -15 -94 -5 -27 -12 -68 -15 -90 -3 -22 -7 -47
-10 -55 -2 -8 -6 -42 -10 -75 -3 -33 -7 -67 -10 -75 -4 -15 -13 -80 -20 -150
-2 -19 -6 -48 -8 -65 -7 -38 -17 -126 -32 -265 -3 -30 -8 -71 -11 -91 -2 -19
-7 -61 -9 -94 -3 -32 -8 -85 -11 -119 -7 -74 -9 -102 -18 -231 -4 -55 -9 -120
-11 -145 -3 -42 -14 -232 -21 -365 -1 -33 -5 -181 -9 -329 -3 -148 -8 -273
-11 -277 -2 -4 0 -10 6 -14 6 -4 8 -11 4 -16 -9 -15 -10 -109 -1 -109 5 0 5
-5 1 -11 -4 -6 -7 -32 -6 -58 1 -137 14 -593 18 -636 3 -27 4 -61 4 -75 -2
-32 -2 -32 4 -120 3 -41 8 -113 11 -160 2 -47 7 -110 10 -140 3 -30 8 -86 10
-125 3 -38 8 -95 10 -125 3 -30 7 -84 10 -120 2 -36 7 -81 10 -100 3 -19 7
-60 10 -90 2 -30 7 -71 9 -90 3 -19 8 -62 11 -95 3 -33 8 -73 11 -89 3 -16 8
-45 10 -65 3 -42 12 -98 25 -161 5 -25 11 -56 13 -70 8 -49 18 -96 33 -155 8
-33 19 -78 24 -100 5 -22 11 -44 13 -50 2 -5 4 -12 4 -15 2 -22 89 -248 117
-305 19 -38 35 -75 35 -82 0 -6 4 -13 8 -15 4 -1 25 -32 46 -68 59 -102 99
-154 201 -261 56 -58 75 -74 165 -139 30 -22 60 -44 67 -49 34 -29 274 -134
353 -155 45 -13 189 -45 215 -49 17 -3 41 -8 55 -11 35 -8 88 -16 185 -30 22
-3 56 -8 75 -11 19 -2 55 -7 80 -10 25 -2 63 -7 85 -9 253 -30 557 -44 1090
-51 728 -8 1435 -21 1450 -25 6 -1 12 -1 15 0 14 6 92 5 96 -1 2 -4 17 -4 33
1 16 4 32 6 34 3 3 -2 110 -6 238 -8 632 -11 967 -17 1099 -21 244 -8 1190 -8
1465 0 337 9 497 14 620 20 56 3 152 8 215 11 218 10 325 16 409 21 46 2 127
7 180 10 191 11 384 22 471 29 96 7 243 16 320 20 41 2 104 7 140 10 123 10
195 15 270 20 97 5 209 19 250 30 8 2 33 6 54 10 48 7 132 30 206 56 75 27
240 110 240 121 0 5 5 6 10 3 6 -3 13 1 16 9 3 9 11 16 18 16 6 0 29 15 51 33
41 33 182 174 200 198 6 8 25 33 43 55 17 23 32 45 32 50 0 4 6 15 14 23 20
22 100 176 127 242 11 30 26 65 32 79 5 14 11 30 12 35 2 6 14 45 28 87 15 42
29 87 31 100 3 13 14 56 25 97 11 41 20 77 19 80 0 3 1 8 2 11 1 3 3 13 5 22
2 9 8 40 14 70 7 29 14 69 17 88 3 19 7 46 10 60 5 30 14 84 19 125 2 17 5 30
6 30 1 0 3 14 4 30 1 17 5 44 8 60 9 43 16 93 21 145 3 25 7 62 10 83 11 72
15 103 21 172 4 38 8 77 10 87 2 9 7 48 10 85 4 37 9 86 11 108 2 22 6 69 9
105 12 148 15 188 20 240 3 30 7 98 10 150 3 52 8 133 10 180 22 398 22 986 0
1460 -6 126 -22 385 -24 385 -1 0 -4 36 -6 80 -3 44 -7 105 -10 136 -6 59 -13
151 -20 259 -2 36 -5 65 -5 65 -2 0 -5 37 -14 138 -4 37 -8 82 -11 100 -2 18
-7 55 -10 82 -5 48 -9 73 -20 140 -3 17 -8 53 -11 80 -3 28 -8 54 -11 58 -3 5
-7 25 -9 44 -4 41 -31 164 -59 263 -1 3 -7 25 -14 50 -51 184 -172 451 -256
565 -57 78 -101 133 -127 159 -15 15 -28 33 -28 39 0 6 -2 8 -5 5 -3 -3 -25
14 -49 36 -135 129 -305 228 -496 291 -47 16 -92 31 -100 33 -8 3 -22 6 -30 8
-8 1 -35 7 -60 14 -25 7 -54 14 -65 15 -11 2 -31 6 -45 9 -14 3 -46 7 -72 10
-26 3 -51 7 -55 9 -5 3 -30 7 -58 11 -27 3 -59 8 -70 10 -11 2 -45 7 -75 11
-30 4 -64 9 -75 11 -11 3 -47 7 -80 9 -33 3 -78 7 -100 10 -22 2 -107 6 -190
9 -82 3 -150 6 -150 7 0 0 -58 2 -130 4 -71 2 -215 6 -320 9 -284 9 -520 15
-815 21 -146 3 -377 8 -515 11 -272 6 -2703 13 -2708 8z"/>
</g>
</svg>
